<mxfile>
    <diagram id="WXhiUG_U6nYVvWQGsRG2" name="第 1 页">
        <mxGraphModel dx="1863" dy="1333" grid="0" gridSize="10" guides="1" tooltips="1" connect="1" arrows="1" fold="1" page="1" pageScale="1" pageWidth="1654" pageHeight="1169" background="#ffffff" math="0" shadow="0">
            <root>
                <mxCell id="0"/>
                <mxCell id="1" parent="0"/>
                <mxCell id="34" value="" style="edgeStyle=orthogonalEdgeStyle;rounded=0;orthogonalLoop=1;jettySize=auto;html=1;strokeWidth=3;fillColor=#f5f5f5;strokeColor=#030303;" parent="1" source="2" target="30" edge="1">
                    <mxGeometry relative="1" as="geometry"/>
                </mxCell>
                <mxCell id="2" value="开始" style="rounded=1;whiteSpace=wrap;html=1;fontFamily=Sarasa Mono SC;strokeWidth=3;fillColor=#f5f5f5;fontColor=#333333;strokeColor=#030303;" parent="1" vertex="1">
                    <mxGeometry x="325.86" y="29" width="120" height="60" as="geometry"/>
                </mxCell>
                <mxCell id="12" value="" style="edgeStyle=orthogonalEdgeStyle;rounded=0;orthogonalLoop=1;jettySize=auto;html=1;strokeWidth=3;fillColor=#f5f5f5;strokeColor=#030303;" parent="1" source="4" target="10" edge="1">
                    <mxGeometry relative="1" as="geometry"/>
                </mxCell>
                <mxCell id="70" value="" style="edgeStyle=orthogonalEdgeStyle;rounded=0;orthogonalLoop=1;jettySize=auto;html=1;strokeWidth=3;fillColor=#f5f5f5;strokeColor=#030303;" parent="1" source="4" target="69" edge="1">
                    <mxGeometry relative="1" as="geometry"/>
                </mxCell>
                <mxCell id="4" value="&lt;font face=&quot;Sarasa Mono SC&quot;&gt;数字键是按下&lt;/font&gt;" style="html=1;whiteSpace=wrap;aspect=fixed;shape=isoRectangle;strokeWidth=3;fillColor=#f5f5f5;fontColor=#333333;strokeColor=#030303;" parent="1" vertex="1">
                    <mxGeometry x="310.86" y="239" width="150" height="90" as="geometry"/>
                </mxCell>
                <mxCell id="17" value="" style="edgeStyle=orthogonalEdgeStyle;rounded=0;orthogonalLoop=1;jettySize=auto;html=1;strokeWidth=3;fillColor=#f5f5f5;strokeColor=#030303;" parent="1" source="10" target="16" edge="1">
                    <mxGeometry relative="1" as="geometry"/>
                </mxCell>
                <mxCell id="27" value="" style="edgeStyle=orthogonalEdgeStyle;rounded=0;orthogonalLoop=1;jettySize=auto;html=1;strokeWidth=3;fillColor=#f5f5f5;strokeColor=#030303;" parent="1" source="10" target="26" edge="1">
                    <mxGeometry relative="1" as="geometry"/>
                </mxCell>
                <mxCell id="10" value="&lt;font face=&quot;Sarasa Mono SC&quot;&gt;运算符按下&lt;/font&gt;" style="html=1;whiteSpace=wrap;aspect=fixed;shape=isoRectangle;strokeWidth=3;fillColor=#f5f5f5;fontColor=#333333;strokeColor=#030303;" parent="1" vertex="1">
                    <mxGeometry x="679" y="239" width="150" height="90" as="geometry"/>
                </mxCell>
                <mxCell id="92" value="" style="edgeStyle=orthogonalEdgeStyle;rounded=0;orthogonalLoop=1;jettySize=auto;html=1;strokeWidth=3;fillColor=#f5f5f5;strokeColor=#030303;" parent="1" source="16" target="91" edge="1">
                    <mxGeometry relative="1" as="geometry"/>
                </mxCell>
                <mxCell id="16" value="&lt;font face=&quot;Sarasa Mono SC&quot;&gt;输出窗口是否有运算数&lt;/font&gt;" style="html=1;whiteSpace=wrap;aspect=fixed;shape=isoRectangle;strokeWidth=3;fillColor=#f5f5f5;fontColor=#333333;strokeColor=#030303;" parent="1" vertex="1">
                    <mxGeometry x="679" y="359" width="150" height="90" as="geometry"/>
                </mxCell>
                <mxCell id="22" value="" style="edgeStyle=orthogonalEdgeStyle;rounded=0;orthogonalLoop=1;jettySize=auto;html=1;strokeWidth=3;fillColor=#f5f5f5;strokeColor=#030303;" parent="1" source="19" target="20" edge="1">
                    <mxGeometry relative="1" as="geometry"/>
                </mxCell>
                <mxCell id="19" value="&lt;font face=&quot;Sarasa Mono SC&quot;&gt;历史窗口添加操作数与运算符&lt;/font&gt;" style="whiteSpace=wrap;html=1;strokeWidth=3;fillColor=#f5f5f5;fontColor=#333333;strokeColor=#030303;" parent="1" vertex="1">
                    <mxGeometry x="694" y="739" width="120" height="60" as="geometry"/>
                </mxCell>
                <mxCell id="104" value="" style="edgeStyle=orthogonalEdgeStyle;rounded=0;orthogonalLoop=1;jettySize=auto;html=1;strokeWidth=3;fillColor=#f5f5f5;strokeColor=#030303;" parent="1" source="20" target="103" edge="1">
                    <mxGeometry relative="1" as="geometry"/>
                </mxCell>
                <mxCell id="20" value="&lt;font face=&quot;Sarasa Mono SC&quot;&gt;清除输出窗口&lt;/font&gt;" style="whiteSpace=wrap;html=1;strokeWidth=3;fillColor=#f5f5f5;fontColor=#333333;strokeColor=#030303;" parent="1" vertex="1">
                    <mxGeometry x="694" y="849" width="120" height="60" as="geometry"/>
                </mxCell>
                <mxCell id="37" value="" style="edgeStyle=orthogonalEdgeStyle;rounded=0;orthogonalLoop=1;jettySize=auto;html=1;strokeWidth=3;fillColor=#f5f5f5;strokeColor=#030303;" parent="1" source="26" target="36" edge="1">
                    <mxGeometry relative="1" as="geometry"/>
                </mxCell>
                <mxCell id="49" value="" style="edgeStyle=orthogonalEdgeStyle;rounded=0;orthogonalLoop=1;jettySize=auto;html=1;strokeWidth=3;fillColor=#f5f5f5;strokeColor=#030303;" parent="1" source="26" target="48" edge="1">
                    <mxGeometry relative="1" as="geometry"/>
                </mxCell>
                <mxCell id="26" value="&lt;font face=&quot;Sarasa Mono SC&quot;&gt;计算键按下&lt;/font&gt;" style="html=1;whiteSpace=wrap;aspect=fixed;shape=isoRectangle;strokeWidth=3;fillColor=#f5f5f5;fontColor=#333333;strokeColor=#030303;" parent="1" vertex="1">
                    <mxGeometry x="959" y="239" width="150" height="90" as="geometry"/>
                </mxCell>
                <mxCell id="33" value="" style="edgeStyle=orthogonalEdgeStyle;rounded=0;orthogonalLoop=1;jettySize=auto;html=1;strokeWidth=3;fillColor=#f5f5f5;strokeColor=#030303;" parent="1" source="30" target="4" edge="1">
                    <mxGeometry relative="1" as="geometry"/>
                </mxCell>
                <mxCell id="30" value="响应按键" style="shape=parallelogram;perimeter=parallelogramPerimeter;whiteSpace=wrap;html=1;fixedSize=1;strokeWidth=3;fillColor=#f5f5f5;fontColor=#333333;strokeColor=#030303;" parent="1" vertex="1">
                    <mxGeometry x="325.86" y="139" width="120" height="60" as="geometry"/>
                </mxCell>
                <mxCell id="40" value="" style="edgeStyle=orthogonalEdgeStyle;rounded=0;orthogonalLoop=1;jettySize=auto;html=1;strokeWidth=3;fillColor=#f5f5f5;strokeColor=#030303;" parent="1" source="36" target="39" edge="1">
                    <mxGeometry relative="1" as="geometry"/>
                </mxCell>
                <mxCell id="36" value="&lt;font face=&quot;Sarasa Mono SC&quot;&gt;输出窗口是否有运算数&lt;/font&gt;" style="html=1;whiteSpace=wrap;aspect=fixed;shape=isoRectangle;strokeWidth=3;fillColor=#f5f5f5;fontColor=#333333;strokeColor=#030303;" parent="1" vertex="1">
                    <mxGeometry x="959" y="359" width="150" height="90" as="geometry"/>
                </mxCell>
                <mxCell id="38" value="&lt;font face=&quot;Sarasa Mono SC&quot;&gt;是&lt;/font&gt;" style="text;html=1;align=center;verticalAlign=middle;resizable=0;points=[];autosize=1;strokeWidth=3;fontColor=#333333;" parent="1" vertex="1">
                    <mxGeometry x="1049" y="339" width="30" height="20" as="geometry"/>
                </mxCell>
                <mxCell id="43" value="" style="edgeStyle=orthogonalEdgeStyle;rounded=0;orthogonalLoop=1;jettySize=auto;html=1;strokeWidth=3;fillColor=#f5f5f5;strokeColor=#030303;" parent="1" source="39" target="42" edge="1">
                    <mxGeometry relative="1" as="geometry"/>
                </mxCell>
                <mxCell id="39" value="&lt;font face=&quot;Sarasa Mono SC&quot;&gt;历史窗口是否有运算数&lt;/font&gt;" style="html=1;whiteSpace=wrap;aspect=fixed;shape=isoRectangle;strokeWidth=3;fillColor=#f5f5f5;fontColor=#333333;strokeColor=#030303;" parent="1" vertex="1">
                    <mxGeometry x="959" y="489" width="150" height="90" as="geometry"/>
                </mxCell>
                <mxCell id="41" value="&lt;font face=&quot;Sarasa Mono SC&quot;&gt;是&lt;/font&gt;" style="text;html=1;align=center;verticalAlign=middle;resizable=0;points=[];autosize=1;strokeWidth=3;fontColor=#333333;" parent="1" vertex="1">
                    <mxGeometry x="1049" y="461" width="30" height="20" as="geometry"/>
                </mxCell>
                <mxCell id="45" value="" style="edgeStyle=orthogonalEdgeStyle;rounded=0;orthogonalLoop=1;jettySize=auto;html=1;strokeWidth=3;fillColor=#f5f5f5;strokeColor=#030303;" parent="1" source="42" target="44" edge="1">
                    <mxGeometry relative="1" as="geometry"/>
                </mxCell>
                <mxCell id="42" value="&lt;font face=&quot;Sarasa Mono SC&quot;&gt;历史窗口添加操作数与等号&lt;/font&gt;" style="whiteSpace=wrap;html=1;strokeWidth=3;fillColor=#f5f5f5;fontColor=#333333;strokeColor=#030303;" parent="1" vertex="1">
                    <mxGeometry x="974" y="629" width="120" height="60" as="geometry"/>
                </mxCell>
                <mxCell id="47" value="" style="edgeStyle=orthogonalEdgeStyle;rounded=0;orthogonalLoop=1;jettySize=auto;html=1;strokeWidth=3;fillColor=#f5f5f5;strokeColor=#030303;" parent="1" source="44" target="46" edge="1">
                    <mxGeometry relative="1" as="geometry"/>
                </mxCell>
                <mxCell id="44" value="&lt;font face=&quot;Sarasa Mono SC&quot;&gt;计算结果并输出&lt;/font&gt;" style="whiteSpace=wrap;html=1;strokeWidth=3;fillColor=#f5f5f5;fontColor=#333333;strokeColor=#030303;" parent="1" vertex="1">
                    <mxGeometry x="974" y="739" width="120" height="60" as="geometry"/>
                </mxCell>
                <mxCell id="172" style="edgeStyle=orthogonalEdgeStyle;rounded=0;jumpStyle=arc;orthogonalLoop=1;jettySize=auto;html=1;endArrow=none;endFill=0;strokeColor=#030303;strokeWidth=3;" parent="1" source="46" edge="1">
                    <mxGeometry relative="1" as="geometry">
                        <mxPoint x="1034" y="1100.2" as="targetPoint"/>
                    </mxGeometry>
                </mxCell>
                <mxCell id="46" value="&lt;font face=&quot;Sarasa Mono SC&quot;&gt;完成计算&lt;br&gt;&lt;/font&gt;" style="whiteSpace=wrap;html=1;strokeWidth=3;fillColor=#f5f5f5;fontColor=#333333;strokeColor=#030303;" parent="1" vertex="1">
                    <mxGeometry x="974" y="849" width="120" height="60" as="geometry"/>
                </mxCell>
                <mxCell id="51" value="" style="edgeStyle=orthogonalEdgeStyle;rounded=0;orthogonalLoop=1;jettySize=auto;html=1;strokeWidth=3;fillColor=#f5f5f5;strokeColor=#030303;" parent="1" source="48" target="50" edge="1">
                    <mxGeometry relative="1" as="geometry"/>
                </mxCell>
                <mxCell id="53" value="" style="edgeStyle=orthogonalEdgeStyle;rounded=0;orthogonalLoop=1;jettySize=auto;html=1;strokeWidth=3;fillColor=#f5f5f5;strokeColor=#030303;" parent="1" source="48" target="52" edge="1">
                    <mxGeometry relative="1" as="geometry"/>
                </mxCell>
                <mxCell id="48" value="&lt;font face=&quot;Sarasa Mono SC&quot;&gt;退格键按下&lt;/font&gt;" style="html=1;whiteSpace=wrap;aspect=fixed;shape=isoRectangle;strokeWidth=3;fillColor=#f5f5f5;fontColor=#333333;strokeColor=#030303;" parent="1" vertex="1">
                    <mxGeometry x="1189" y="239" width="150" height="90" as="geometry"/>
                </mxCell>
                <mxCell id="59" value="" style="edgeStyle=orthogonalEdgeStyle;rounded=0;orthogonalLoop=1;jettySize=auto;html=1;strokeWidth=3;fillColor=#f5f5f5;strokeColor=#030303;endArrow=blockThin;endFill=1;" parent="1" source="50" target="57" edge="1">
                    <mxGeometry relative="1" as="geometry"/>
                </mxCell>
                <mxCell id="50" value="&lt;font face=&quot;Sarasa Mono SC&quot;&gt;清除键按下&lt;/font&gt;" style="html=1;whiteSpace=wrap;aspect=fixed;shape=isoRectangle;strokeWidth=3;fillColor=#f5f5f5;fontColor=#333333;strokeColor=#030303;" parent="1" vertex="1">
                    <mxGeometry x="1410" y="239" width="150" height="90" as="geometry"/>
                </mxCell>
                <mxCell id="109" value="" style="edgeStyle=orthogonalEdgeStyle;rounded=0;orthogonalLoop=1;jettySize=auto;html=1;strokeWidth=3;fillColor=#f5f5f5;strokeColor=#030303;" parent="1" source="52" target="105" edge="1">
                    <mxGeometry relative="1" as="geometry"/>
                </mxCell>
                <mxCell id="52" value="&lt;font face=&quot;Sarasa Mono SC&quot;&gt;输出窗口是否有运算数&lt;/font&gt;" style="html=1;whiteSpace=wrap;aspect=fixed;shape=isoRectangle;strokeWidth=3;fillColor=#f5f5f5;fontColor=#333333;strokeColor=#030303;" parent="1" vertex="1">
                    <mxGeometry x="1189" y="359" width="150" height="90" as="geometry"/>
                </mxCell>
                <mxCell id="54" value="&lt;font face=&quot;Sarasa Mono SC&quot;&gt;是&lt;/font&gt;" style="text;html=1;align=center;verticalAlign=middle;resizable=0;points=[];autosize=1;strokeWidth=3;fontColor=#333333;" parent="1" vertex="1">
                    <mxGeometry x="1272" y="339" width="30" height="20" as="geometry"/>
                </mxCell>
                <mxCell id="60" value="" style="edgeStyle=orthogonalEdgeStyle;rounded=0;orthogonalLoop=1;jettySize=auto;html=1;strokeWidth=3;fillColor=#f5f5f5;strokeColor=#030303;endArrow=blockThin;endFill=1;" parent="1" source="57" target="58" edge="1">
                    <mxGeometry relative="1" as="geometry"/>
                </mxCell>
                <mxCell id="57" value="&lt;font face=&quot;Sarasa Mono SC&quot;&gt;清除输出窗口&lt;/font&gt;" style="rounded=0;whiteSpace=wrap;html=1;strokeWidth=3;fillColor=#f5f5f5;fontColor=#333333;strokeColor=#030303;" parent="1" vertex="1">
                    <mxGeometry x="1425" y="374" width="120" height="60" as="geometry"/>
                </mxCell>
                <mxCell id="87" value="" style="edgeStyle=orthogonalEdgeStyle;rounded=0;orthogonalLoop=1;jettySize=auto;html=1;strokeWidth=3;fillColor=#f5f5f5;strokeColor=#030303;endArrow=blockThin;endFill=1;" parent="1" source="58" target="86" edge="1">
                    <mxGeometry relative="1" as="geometry"/>
                </mxCell>
                <mxCell id="58" value="&lt;font face=&quot;Sarasa Mono SC&quot;&gt;清除历史窗口&lt;/font&gt;" style="rounded=0;whiteSpace=wrap;html=1;strokeWidth=3;fillColor=#f5f5f5;fontColor=#333333;strokeColor=#030303;" parent="1" vertex="1">
                    <mxGeometry x="1425" y="504" width="120" height="60" as="geometry"/>
                </mxCell>
                <mxCell id="61" value="&lt;font face=&quot;Sarasa Mono SC&quot;&gt;是&lt;/font&gt;" style="text;html=1;align=center;verticalAlign=middle;resizable=0;points=[];autosize=1;strokeWidth=3;fontColor=#333333;" parent="1" vertex="1">
                    <mxGeometry x="1490" y="339" width="30" height="20" as="geometry"/>
                </mxCell>
                <mxCell id="169" style="edgeStyle=orthogonalEdgeStyle;rounded=0;orthogonalLoop=1;jettySize=auto;html=1;endArrow=none;endFill=0;strokeColor=#030303;strokeWidth=3;jumpStyle=none;" parent="1" source="65" edge="1">
                    <mxGeometry relative="1" as="geometry">
                        <mxPoint x="1351" y="1101" as="targetPoint"/>
                        <Array as="points">
                            <mxPoint x="1264" y="1101"/>
                        </Array>
                    </mxGeometry>
                </mxCell>
                <mxCell id="65" value="&lt;font face=&quot;Sarasa Mono SC&quot;&gt;输出窗口删除一位&lt;/font&gt;" style="rounded=0;whiteSpace=wrap;html=1;strokeWidth=3;fillColor=#f5f5f5;fontColor=#333333;strokeColor=#030303;" parent="1" vertex="1">
                    <mxGeometry x="1204" y="629" width="120" height="60" as="geometry"/>
                </mxCell>
                <mxCell id="77" value="" style="edgeStyle=orthogonalEdgeStyle;rounded=0;orthogonalLoop=1;jettySize=auto;html=1;strokeWidth=3;fillColor=#f5f5f5;strokeColor=#030303;" parent="1" source="69" target="73" edge="1">
                    <mxGeometry relative="1" as="geometry"/>
                </mxCell>
                <mxCell id="175" style="edgeStyle=orthogonalEdgeStyle;rounded=0;orthogonalLoop=1;jettySize=auto;html=1;strokeWidth=3;strokeColor=#000000;endArrow=block;endFill=1;" edge="1" parent="1" source="69" target="173">
                    <mxGeometry relative="1" as="geometry"/>
                </mxCell>
                <mxCell id="69" value="&lt;font face=&quot;Sarasa Mono SC&quot;&gt;是否完成运算&lt;/font&gt;" style="html=1;whiteSpace=wrap;aspect=fixed;shape=isoRectangle;strokeWidth=3;fillColor=#f5f5f5;fontColor=#333333;strokeColor=#030303;" parent="1" vertex="1">
                    <mxGeometry x="310.86" y="369" width="150" height="90" as="geometry"/>
                </mxCell>
                <mxCell id="71" value="&lt;font face=&quot;Sarasa Mono SC&quot;&gt;是&lt;/font&gt;" style="text;html=1;align=center;verticalAlign=middle;resizable=0;points=[];autosize=1;strokeWidth=3;fontColor=#333333;" parent="1" vertex="1">
                    <mxGeometry x="394.86" y="334" width="30" height="20" as="geometry"/>
                </mxCell>
                <mxCell id="79" value="" style="edgeStyle=orthogonalEdgeStyle;rounded=0;orthogonalLoop=1;jettySize=auto;html=1;strokeWidth=3;fillColor=#f5f5f5;strokeColor=#030303;" parent="1" source="73" target="78" edge="1">
                    <mxGeometry relative="1" as="geometry"/>
                </mxCell>
                <mxCell id="73" value="&lt;font face=&quot;Sarasa Mono SC&quot;&gt;清除历史窗口&lt;/font&gt;" style="rounded=0;whiteSpace=wrap;html=1;strokeWidth=3;fillColor=#f5f5f5;fontColor=#333333;strokeColor=#030303;" parent="1" vertex="1">
                    <mxGeometry x="325.86" y="514" width="120" height="60" as="geometry"/>
                </mxCell>
                <mxCell id="89" value="" style="edgeStyle=orthogonalEdgeStyle;rounded=0;orthogonalLoop=1;jettySize=auto;html=1;strokeWidth=3;fillColor=#f5f5f5;strokeColor=#030303;" parent="1" source="78" target="88" edge="1">
                    <mxGeometry relative="1" as="geometry"/>
                </mxCell>
                <mxCell id="78" value="&lt;font face=&quot;Sarasa Mono SC&quot;&gt;清除输出窗口&lt;/font&gt;" style="rounded=0;whiteSpace=wrap;html=1;strokeWidth=3;fillColor=#f5f5f5;fontColor=#333333;strokeColor=#030303;" parent="1" vertex="1">
                    <mxGeometry x="325.86" y="629" width="120" height="60" as="geometry"/>
                </mxCell>
                <mxCell id="162" style="edgeStyle=orthogonalEdgeStyle;rounded=0;orthogonalLoop=1;jettySize=auto;html=1;endArrow=none;endFill=0;strokeColor=#030303;strokeWidth=3;jumpStyle=none;" parent="1" source="80" edge="1">
                    <mxGeometry relative="1" as="geometry">
                        <mxPoint x="385.86" y="1100" as="targetPoint"/>
                    </mxGeometry>
                </mxCell>
                <mxCell id="80" value="&lt;font face=&quot;Sarasa Mono SC&quot;&gt;计算中&lt;br&gt;&lt;/font&gt;" style="whiteSpace=wrap;html=1;strokeWidth=3;fillColor=#f5f5f5;fontColor=#333333;strokeColor=#030303;" parent="1" vertex="1">
                    <mxGeometry x="325.86" y="849" width="120" height="60" as="geometry"/>
                </mxCell>
                <mxCell id="170" style="edgeStyle=orthogonalEdgeStyle;rounded=0;orthogonalLoop=1;jettySize=auto;html=1;endArrow=blockThin;endFill=1;strokeColor=#030303;strokeWidth=3;jumpStyle=arc;entryX=0;entryY=0.5;entryDx=0;entryDy=0;" parent="1" source="86" target="30" edge="1">
                    <mxGeometry relative="1" as="geometry">
                        <mxPoint x="119.86" y="164" as="targetPoint"/>
                        <Array as="points">
                            <mxPoint x="1485" y="1101"/>
                            <mxPoint x="203" y="1101"/>
                            <mxPoint x="203" y="169"/>
                        </Array>
                    </mxGeometry>
                </mxCell>
                <mxCell id="86" value="&lt;font face=&quot;Sarasa Mono SC&quot;&gt;计算中&lt;br&gt;&lt;/font&gt;" style="whiteSpace=wrap;html=1;strokeWidth=3;fillColor=#f5f5f5;fontColor=#333333;strokeColor=#030303;" parent="1" vertex="1">
                    <mxGeometry x="1425" y="629" width="120" height="60" as="geometry"/>
                </mxCell>
                <mxCell id="90" value="" style="edgeStyle=orthogonalEdgeStyle;rounded=0;orthogonalLoop=1;jettySize=auto;html=1;strokeWidth=3;fillColor=#f5f5f5;strokeColor=#030303;" parent="1" source="88" target="80" edge="1">
                    <mxGeometry relative="1" as="geometry"/>
                </mxCell>
                <mxCell id="88" value="&lt;font face=&quot;Sarasa Mono SC&quot;&gt;输出窗口添加数字&lt;/font&gt;" style="rounded=0;whiteSpace=wrap;html=1;strokeWidth=3;fillColor=#f5f5f5;fontColor=#333333;strokeColor=#030303;" parent="1" vertex="1">
                    <mxGeometry x="325.86" y="739" width="120" height="60" as="geometry"/>
                </mxCell>
                <mxCell id="97" value="" style="edgeStyle=orthogonalEdgeStyle;rounded=0;orthogonalLoop=1;jettySize=auto;html=1;strokeWidth=3;fillColor=#f5f5f5;strokeColor=#030303;" parent="1" source="91" target="96" edge="1">
                    <mxGeometry relative="1" as="geometry"/>
                </mxCell>
                <mxCell id="101" style="edgeStyle=orthogonalEdgeStyle;rounded=0;orthogonalLoop=1;jettySize=auto;html=1;entryX=1;entryY=0.5;entryDx=0;entryDy=0;strokeWidth=3;fillColor=#f5f5f5;strokeColor=#030303;" parent="1" source="91" target="19" edge="1">
                    <mxGeometry relative="1" as="geometry">
                        <mxPoint x="879" y="769" as="targetPoint"/>
                        <Array as="points">
                            <mxPoint x="879" y="534"/>
                            <mxPoint x="879" y="769"/>
                        </Array>
                    </mxGeometry>
                </mxCell>
                <mxCell id="91" value="&lt;font face=&quot;Sarasa Mono SC&quot;&gt;是否完成运算&lt;/font&gt;" style="html=1;whiteSpace=wrap;aspect=fixed;shape=isoRectangle;strokeWidth=3;fillColor=#f5f5f5;fontColor=#333333;strokeColor=#030303;" parent="1" vertex="1">
                    <mxGeometry x="679" y="489" width="150" height="90" as="geometry"/>
                </mxCell>
                <mxCell id="93" value="&lt;font face=&quot;Sarasa Mono SC&quot;&gt;是&lt;/font&gt;" style="text;html=1;align=center;verticalAlign=middle;resizable=0;points=[];autosize=1;strokeWidth=3;fontColor=#333333;" parent="1" vertex="1">
                    <mxGeometry x="769" y="459" width="30" height="20" as="geometry"/>
                </mxCell>
                <mxCell id="95" value="&lt;font face=&quot;Sarasa Mono SC&quot;&gt;是&lt;/font&gt;" style="text;html=1;align=center;verticalAlign=middle;resizable=0;points=[];autosize=1;strokeWidth=3;fontColor=#333333;" parent="1" vertex="1">
                    <mxGeometry x="769" y="589" width="30" height="20" as="geometry"/>
                </mxCell>
                <mxCell id="98" value="" style="edgeStyle=orthogonalEdgeStyle;rounded=0;orthogonalLoop=1;jettySize=auto;html=1;strokeWidth=3;fillColor=#f5f5f5;strokeColor=#030303;" parent="1" source="96" target="19" edge="1">
                    <mxGeometry relative="1" as="geometry"/>
                </mxCell>
                <mxCell id="96" value="&lt;font face=&quot;Sarasa Mono SC&quot;&gt;清除历史窗口&lt;/font&gt;" style="rounded=0;whiteSpace=wrap;html=1;strokeWidth=3;fillColor=#f5f5f5;fontColor=#333333;strokeColor=#030303;" parent="1" vertex="1">
                    <mxGeometry x="694" y="629" width="120" height="60" as="geometry"/>
                </mxCell>
                <mxCell id="102" value="&lt;font face=&quot;Sarasa Mono SC&quot;&gt;否&lt;/font&gt;" style="text;html=1;align=center;verticalAlign=middle;resizable=0;points=[];autosize=1;strokeWidth=3;fontColor=#333333;" parent="1" vertex="1">
                    <mxGeometry x="839" y="509" width="30" height="20" as="geometry"/>
                </mxCell>
                <mxCell id="167" style="edgeStyle=orthogonalEdgeStyle;rounded=0;orthogonalLoop=1;jettySize=auto;html=1;endArrow=none;endFill=0;strokeColor=#030303;strokeWidth=3;jumpStyle=none;" parent="1" source="103" edge="1">
                    <mxGeometry relative="1" as="geometry">
                        <mxPoint x="754" y="1100" as="targetPoint"/>
                    </mxGeometry>
                </mxCell>
                <mxCell id="103" value="&lt;font face=&quot;Sarasa Mono SC&quot;&gt;计算中&lt;br&gt;&lt;/font&gt;" style="whiteSpace=wrap;html=1;strokeWidth=3;fillColor=#f5f5f5;fontColor=#333333;strokeColor=#030303;" parent="1" vertex="1">
                    <mxGeometry x="694" y="959" width="120" height="60" as="geometry"/>
                </mxCell>
                <mxCell id="110" value="" style="edgeStyle=orthogonalEdgeStyle;rounded=0;orthogonalLoop=1;jettySize=auto;html=1;strokeWidth=3;fillColor=#f5f5f5;strokeColor=#030303;" parent="1" source="105" target="65" edge="1">
                    <mxGeometry relative="1" as="geometry"/>
                </mxCell>
                <mxCell id="105" value="&lt;font face=&quot;Sarasa Mono SC&quot;&gt;是否完成运算&lt;/font&gt;" style="html=1;whiteSpace=wrap;aspect=fixed;shape=isoRectangle;strokeWidth=3;fillColor=#f5f5f5;fontColor=#333333;strokeColor=#030303;" parent="1" vertex="1">
                    <mxGeometry x="1189" y="489" width="150" height="90" as="geometry"/>
                </mxCell>
                <mxCell id="111" value="&lt;font face=&quot;Sarasa Mono SC&quot;&gt;是&lt;/font&gt;" style="text;html=1;align=center;verticalAlign=middle;resizable=0;points=[];autosize=1;strokeWidth=3;fontColor=#333333;shadow=0;" parent="1" vertex="1">
                    <mxGeometry x="1279" y="461" width="30" height="20" as="geometry"/>
                </mxCell>
                <mxCell id="112" value="&lt;font face=&quot;Sarasa Mono SC&quot;&gt;否&lt;/font&gt;" style="text;html=1;align=center;verticalAlign=middle;resizable=0;points=[];autosize=1;strokeWidth=3;fontColor=#333333;" parent="1" vertex="1">
                    <mxGeometry x="1279" y="589" width="30" height="20" as="geometry"/>
                </mxCell>
                <mxCell id="125" value="&lt;font face=&quot;Sarasa Mono SC&quot;&gt;否&lt;/font&gt;" style="text;html=1;align=center;verticalAlign=middle;resizable=0;points=[];autosize=1;strokeWidth=3;fontColor=#333333;" parent="1" vertex="1">
                    <mxGeometry x="493" y="388" width="30" height="20" as="geometry"/>
                </mxCell>
                <mxCell id="126" value="&lt;font face=&quot;Sarasa Mono SC&quot;&gt;是&lt;/font&gt;" style="text;html=1;align=center;verticalAlign=middle;resizable=0;points=[];autosize=1;strokeWidth=3;fontColor=#333333;" parent="1" vertex="1">
                    <mxGeometry x="394.86" y="469" width="30" height="20" as="geometry"/>
                </mxCell>
                <mxCell id="127" value="&lt;font face=&quot;Sarasa Mono SC&quot;&gt;是&lt;/font&gt;" style="text;html=1;align=center;verticalAlign=middle;resizable=0;points=[];autosize=1;strokeWidth=3;fontColor=#333333;shadow=0;" parent="1" vertex="1">
                    <mxGeometry x="765" y="334" width="30" height="20" as="geometry"/>
                </mxCell>
                <mxCell id="128" value="&lt;font face=&quot;Sarasa Mono SC&quot;&gt;是&lt;/font&gt;" style="text;html=1;align=center;verticalAlign=middle;resizable=0;points=[];autosize=1;strokeWidth=3;fontColor=#333333;" parent="1" vertex="1">
                    <mxGeometry x="1052" y="589" width="30" height="20" as="geometry"/>
                </mxCell>
                <mxCell id="176" style="edgeStyle=orthogonalEdgeStyle;rounded=0;orthogonalLoop=1;jettySize=auto;html=1;entryX=1;entryY=0.5;entryDx=0;entryDy=0;endArrow=block;endFill=1;strokeColor=#000000;strokeWidth=3;" edge="1" parent="1" source="173" target="88">
                    <mxGeometry relative="1" as="geometry">
                        <Array as="points">
                            <mxPoint x="563" y="769"/>
                        </Array>
                    </mxGeometry>
                </mxCell>
                <mxCell id="173" value="&lt;font face=&quot;Sarasa Mono SC&quot;&gt;输出数字是否超出上限&lt;/font&gt;" style="html=1;whiteSpace=wrap;aspect=fixed;shape=isoRectangle;strokeWidth=3;fillColor=#f5f5f5;fontColor=#333333;strokeColor=#030303;" vertex="1" parent="1">
                    <mxGeometry x="488" y="504" width="150" height="90" as="geometry"/>
                </mxCell>
                <mxCell id="177" value="&lt;font face=&quot;Sarasa Mono SC&quot;&gt;否&lt;/font&gt;" style="text;html=1;align=center;verticalAlign=middle;resizable=0;points=[];autosize=1;strokeWidth=3;fontColor=#333333;" vertex="1" parent="1">
                    <mxGeometry x="568" y="657" width="30" height="20" as="geometry"/>
                </mxCell>
            </root>
        </mxGraphModel>
    </diagram>
</mxfile>